<svg width="8" height="7" viewBox="0 0 8 7" fill="none" xmlns="http://www.w3.org/2000/svg">
<path d="M3.90186 6.25C3.28379 6.25 2.6796 6.06672 2.1657 5.72334C1.6518 5.37997 1.25126 4.89191 1.01473 4.32089C0.778209 3.74987 0.716324 3.12154 0.836903 2.51534C0.957482 1.90915 1.25511 1.35233 1.69215 0.915293C2.12919 0.478254 2.68601 0.180626 3.2922 0.0600474C3.89839 -0.0605314 4.52672 0.00135401 5.09774 0.237878C5.66876 0.474402 6.15682 0.874941 6.5002 1.38884C6.84358 1.90275 7.02686 2.50694 7.02686 3.125C7.02587 3.9535 6.69631 4.74778 6.11047 5.33361C5.52463 5.91945 4.73035 6.24901 3.90186 6.25ZM3.90186 1.25C3.53102 1.25 3.1685 1.35997 2.86016 1.566C2.55182 1.77202 2.3115 2.06486 2.16958 2.40747C2.02767 2.75008 1.99054 3.12708 2.06288 3.4908C2.13523 3.85451 2.31381 4.1886 2.57603 4.45083C2.83826 4.71305 3.17235 4.89163 3.53606 4.96397C3.89978 5.03632 4.27678 4.99919 4.61939 4.85728C4.962 4.71536 5.25484 4.47504 5.46086 4.1667C5.66689 3.85835 5.77686 3.49584 5.77686 3.125C5.77636 2.62787 5.57866 2.15125 5.22713 1.79972C4.87561 1.4482 4.39899 1.2505 3.90186 1.25Z" fill="#FFEE00"/>
</svg>
